<svg t="1642845202036" class="icon" viewBox="0 0 1024 1024" fill="currentColor" version="1.1" xmlns="http://www.w3.org/2000/svg" p-id="1508" width="20" height="20">
    <path d="M510.8224 1024C242.8416 1024 23.04 818.3808 0 556.4928a47.7696 47.7696 0 0 1 84.224-28.6208c0.256 0.4096 0.6656 0.1536 0.6656-0.9728a309.76 309.76 0 0 0 226.304 97.9968 313.4976 313.4976 0 0 0 313.5488-313.5488c0-90.0608-38.144-170.496-98.9184-227.2768 0.1536-0.1536 0.6656-0.1536 0.4096-0.4096A48.2304 48.2304 0 0 1 556.6464 0c261.7344 23.296 467.2 242.944 467.2 510.976 0 283.4432-229.5808 513.024-513.024 513.024z" p-id="1509"></path>
</svg>