<svg t="1642845137574" class="icon" viewBox="0 0 1024 1024" fill="currentColor" version="1.1" xmlns="http://www.w3.org/2000/svg" p-id="1321" width="20" height="20">
    <path d="M563.2 1024H460.8v-153.6h102.4v153.6z m274.6368-113.7664l-108.5952-108.5952 72.3968-72.3968 108.6464 108.6464-72.3456 72.3456h-0.1024z m-651.6736 0l-72.448-72.3968 108.544-108.6464 72.448 72.3968-108.544 108.6464zM512 768.3584a256.3584 256.3584 0 1 1 0.2048-512.7168A256.3584 256.3584 0 0 1 512 768.3584zM1024 563.2h-153.6V460.8h153.6v102.4zM153.6 563.2H0V460.8h153.6v102.4z m647.9872-268.3904l-72.3456-72.448 108.5952-108.6464 72.448 72.448-108.6464 108.5952-0.0512 0.0512z m-579.2256 0l-108.544-108.5952 72.448-72.3968 108.544 108.6464-72.3968 72.2944-0.0512 0.0512zM563.2 153.6H460.8V0h102.4v153.6z" p-id="1322"></path>
</svg>