<svg width="22" height="22" viewBox="0 0 22 22" fill="none" xmlns="http://www.w3.org/2000/svg">
<path d="M9.53711 13.3869C9.53711 14.9915 10.1664 16.5303 11.2866 17.6649C12.4067 18.7995 13.926 19.4369 15.5101 19.4369C17.0942 19.4369 18.6135 18.7995 19.7337 17.6649C20.8538 16.5303 21.4831 14.9915 21.4831 13.3869C21.4831 11.7824 20.8538 10.2435 19.7337 9.10892C18.6135 7.97432 17.0942 7.33691 15.5101 7.33691C13.926 7.33691 12.4067 7.97432 11.2866 9.10892C10.1664 10.2435 9.53711 11.7824 9.53711 13.3869Z" fill="#E09B40"/>
<path d="M9.53711 12.9911C9.53711 14.5752 10.1664 16.0945 11.2866 17.2146C12.4067 18.3348 13.926 18.9641 15.5101 18.9641C17.0942 18.9641 18.6135 18.3348 19.7337 17.2146C20.8538 16.0945 21.4831 14.5752 21.4831 12.9911C21.4831 11.4069 20.8538 9.88767 19.7337 8.76752C18.6135 7.64736 17.0942 7.01807 15.5101 7.01807C13.926 7.01807 12.4067 7.64736 11.2866 8.76752C10.1664 9.88767 9.53711 11.4069 9.53711 12.9911Z" fill="#FFD151"/>
<path d="M12.0891 15.9058L15.5211 8.76684L16.2471 7.06184C16.0051 7.02884 15.7521 7.00684 15.5101 7.00684C12.2101 7.00684 9.53711 9.67984 9.53711 12.9798C9.53711 14.5088 10.1201 15.8948 11.0551 16.9508L12.0891 15.9058Z" fill="#FFDD99"/>
<path d="M10.5381 12.991C10.5381 13.644 10.6667 14.2905 10.9166 14.8937C11.1664 15.497 11.5327 16.0451 11.9944 16.5068C12.456 16.9685 13.0042 17.3347 13.6074 17.5846C14.2106 17.8344 14.8572 17.963 15.5101 17.963C16.163 17.963 16.8096 17.8344 17.4128 17.5846C18.016 17.3347 18.5641 16.9685 19.0258 16.5068C19.4875 16.0451 19.8538 15.497 20.1036 14.8937C20.3535 14.2905 20.4821 13.644 20.4821 12.991C20.4821 12.3381 20.3535 11.6916 20.1036 11.0883C19.8538 10.4851 19.4875 9.937 19.0258 9.47531C18.5641 9.01361 18.016 8.64738 17.4128 8.39751C16.8096 8.14765 16.163 8.01904 15.5101 8.01904C14.8572 8.01904 14.2106 8.14765 13.6074 8.39751C13.0042 8.64738 12.456 9.01361 11.9944 9.47531C11.5327 9.937 11.1664 10.4851 10.9166 11.0883C10.6667 11.6916 10.5381 12.3381 10.5381 12.991Z" fill="#D39548"/>
<path d="M10.5601 13.1561C10.5601 14.431 11.0827 15.6537 12.0131 16.5552C12.9435 17.4567 14.2053 17.9631 15.5211 17.9631C16.8368 17.9631 18.0987 17.4567 19.029 16.5552C19.9594 15.6537 20.4821 14.431 20.4821 13.1561C20.4821 11.8812 19.9594 10.6585 19.029 9.75706C18.0987 8.85557 16.8368 8.34912 15.5211 8.34912C14.2053 8.34912 12.9435 8.85557 12.0131 9.75706C11.0827 10.6585 10.5601 11.8812 10.5601 13.1561Z" fill="#E6B141"/>
<path d="M14.2231 14.7509L14.9381 14.9819L15.6531 15.1139L16.5221 14.9269V15.2239L15.7191 15.499L14.9711 15.3119L14.2231 14.7509ZM14.3661 11.8029L15.0921 11.5719L15.7961 11.4399L16.6761 11.6159V11.3299L15.8731 11.0439L15.1141 11.2419L14.3661 11.8029Z" fill="#D39548"/>
<path d="M14.7622 19.3824C14.8062 19.3824 14.8502 19.3934 14.8832 19.3934V18.9314C14.8502 18.9314 14.8062 18.9204 14.7622 18.9204V19.3824ZM14.9822 19.4044C15.0262 19.4044 15.0702 19.4154 15.1032 19.4154V18.9534C15.0702 18.9534 15.0262 18.9534 14.9822 18.9424V19.4044ZM15.2022 19.4264C15.2462 19.4264 15.2792 19.4264 15.3232 19.4374V18.9644H15.2022V19.4264ZM15.4112 19.4264C15.4112 19.4264 15.4222 19.4374 15.4112 19.4264C15.4552 19.4374 15.4882 19.4374 15.5322 19.4374V18.9644H15.4112V19.4264ZM15.6312 18.9644V19.4374H15.7522V18.9534C15.7192 18.9534 15.6752 18.9644 15.6312 18.9644ZM18.1172 18.8324C18.1502 18.8104 18.1942 18.7994 18.2272 18.7774L18.0182 18.4144C17.9852 18.4364 17.9412 18.4474 17.9082 18.4694L18.1172 18.8324ZM18.3042 18.7334C18.3372 18.7114 18.3812 18.6894 18.4142 18.6674L18.2052 18.3264C18.1722 18.3484 18.1282 18.3594 18.0952 18.3814L18.3042 18.7334ZM18.4912 18.6234C18.5242 18.6014 18.5682 18.5794 18.6012 18.5574L18.4032 18.2164C18.3702 18.2384 18.3262 18.2604 18.2932 18.2714L18.4912 18.6234ZM18.6782 18.5134L18.7772 18.4474L18.5792 18.1174C18.5462 18.1394 18.5132 18.1614 18.4692 18.1834L18.6782 18.5134ZM18.6672 18.0734L18.8542 18.3924L18.9532 18.3264L18.7662 18.0074C18.7442 18.0294 18.7112 18.0514 18.6672 18.0734ZM12.0122 18.2824L12.1112 18.3484L12.2982 18.0294L12.1992 17.9634L12.0122 18.2824ZM12.1882 18.4144L12.2872 18.4804L12.4852 18.1504C12.4522 18.1284 12.4192 18.1064 12.3752 18.0844L12.1882 18.4144ZM12.3752 18.5354L12.4742 18.6014L12.6832 18.2494C12.6502 18.2274 12.6062 18.2054 12.5732 18.1944L12.3752 18.5354ZM12.5622 18.6454C12.5952 18.6674 12.6392 18.6784 12.6722 18.7004L12.8812 18.3484C12.8482 18.3264 12.8042 18.3044 12.7712 18.2934L12.5622 18.6454ZM12.7492 18.7444C12.7822 18.7664 12.8262 18.7884 12.8592 18.7994L13.0682 18.4364C13.0352 18.4144 12.9912 18.4034 12.9582 18.3814L12.7492 18.7444Z" fill="#EFC04B"/>
<path d="M0.594238 8.7668C0.594238 10.3714 1.22353 11.9102 2.34369 13.0448C3.46384 14.1794 4.9831 14.8168 6.56724 14.8168C8.15138 14.8168 9.67063 14.1794 10.7908 13.0448C11.9109 11.9102 12.5402 10.3714 12.5402 8.7668C12.5402 7.9723 12.3857 7.18558 12.0856 6.45156C11.7854 5.71754 11.3454 5.0506 10.7908 4.4888C9.67063 3.35421 8.15138 2.7168 6.56724 2.7168C4.9831 2.7168 3.46384 3.35421 2.34369 4.4888C1.22353 5.6234 0.594238 7.16224 0.594238 8.7668Z" fill="#E09B40"/>
<path d="M0.594238 8.37095C0.594238 9.15534 0.748734 9.93204 1.04891 10.6567C1.34908 11.3814 1.78905 12.0399 2.34369 12.5945C2.89833 13.1491 3.55679 13.5891 4.28147 13.8893C5.00615 14.1895 5.78285 14.344 6.56724 14.344C7.35162 14.344 8.12833 14.1895 8.85301 13.8893C9.57769 13.5891 10.2361 13.1491 10.7908 12.5945C11.3454 12.0399 11.7854 11.3814 12.0856 10.6567C12.3857 9.93204 12.5402 9.15534 12.5402 8.37095C12.5402 7.58657 12.3857 6.80986 12.0856 6.08518C11.7854 5.3605 11.3454 4.70205 10.7908 4.1474C10.2361 3.59276 9.57769 3.15279 8.85301 2.85262C8.12833 2.55245 7.35162 2.39795 6.56724 2.39795C5.78285 2.39795 5.00615 2.55245 4.28147 2.85262C3.55679 3.15279 2.89833 3.59276 2.34369 4.1474C1.78905 4.70205 1.34908 5.3605 1.04891 6.08518C0.748734 6.80986 0.594238 7.58657 0.594238 8.37095Z" fill="#FFD151"/>
<path d="M3.14624 11.2862L6.57824 4.14721L7.30424 2.44221C7.06224 2.40921 6.80924 2.38721 6.56724 2.38721C3.26724 2.38721 0.594238 5.06021 0.594238 8.36021C0.594238 9.88921 1.17724 11.2752 2.11224 12.3312L3.14624 11.2862Z" fill="#FFDD99"/>
<path d="M1.59473 8.37093C1.59473 9.02386 1.72333 9.6704 1.9732 10.2736C2.22306 10.8769 2.5893 11.425 3.05099 11.8867C3.51268 12.3484 4.06079 12.7146 4.66402 12.9645C5.26726 13.2143 5.91379 13.3429 6.56673 13.3429C7.21966 13.3429 7.8662 13.2143 8.46943 12.9645C9.07266 12.7146 9.62077 12.3484 10.0825 11.8867C10.5442 11.425 10.9104 10.8769 11.1603 10.2736C11.4101 9.6704 11.5387 9.02386 11.5387 8.37093C11.5387 7.05227 11.0149 5.78762 10.0825 4.85519C9.15003 3.92276 7.88538 3.39893 6.56673 3.39893C5.24807 3.39893 3.98342 3.92276 3.05099 4.85519C2.11856 5.78762 1.59473 7.05227 1.59473 8.37093Z" fill="#D39548"/>
<path d="M1.61719 8.536C1.61719 9.16727 1.74551 9.79235 1.99482 10.3756C2.24413 10.9588 2.60956 11.4887 3.07023 11.9351C3.5309 12.3814 4.0778 12.7355 4.6797 12.9771C5.28159 13.2187 5.9267 13.343 6.57819 13.343C7.22968 13.343 7.87478 13.2187 8.47668 12.9771C9.07858 12.7355 9.62547 12.3814 10.0861 11.9351C10.5468 11.4887 10.9122 10.9588 11.1616 10.3756C11.4109 9.79235 11.5392 9.16727 11.5392 8.536C11.5392 7.26111 11.0165 6.03843 10.0861 5.13694C9.15578 4.23545 7.89393 3.729 6.57819 3.729C5.26245 3.729 4.0006 4.23545 3.07023 5.13694C2.13986 6.03843 1.61719 7.26111 1.61719 8.536Z" fill="#E6B141"/>
<path d="M5.26904 10.1311L5.99504 10.3621L6.69904 10.4941L7.57905 10.3181V10.6041L6.77604 10.8791L6.01704 10.6921L5.26904 10.1311ZM5.42304 7.18306L6.13804 6.95206L6.85304 6.82006L7.72205 6.99606V6.71006L6.91904 6.43506L6.17104 6.62206L5.42304 7.18306Z" fill="#D39548"/>
<path d="M5.81885 14.7623C5.86285 14.7623 5.90685 14.7733 5.93985 14.7733V14.3113C5.90685 14.3113 5.86285 14.3003 5.81885 14.3003V14.7623ZM6.03885 14.7843C6.08285 14.7843 6.12685 14.7953 6.15985 14.7953V14.3333C6.12685 14.3333 6.08285 14.3333 6.03885 14.3223V14.7843ZM6.24785 14.8063C6.29185 14.8063 6.32485 14.8063 6.36885 14.8173V14.3443H6.24785V14.8063ZM6.46785 14.8063C6.46785 14.8063 6.46785 14.8173 6.46785 14.8063C6.51185 14.8173 6.54485 14.8173 6.58885 14.8173V14.3443H6.46785V14.8063ZM6.68785 14.3443V14.8173H6.80885V14.3333C6.76485 14.3333 6.73185 14.3443 6.68785 14.3443ZM9.16285 14.2123C9.19585 14.1903 9.23985 14.1793 9.27285 14.1573L9.06385 13.7943C9.03085 13.8163 8.98685 13.8273 8.95385 13.8493L9.16285 14.2123ZM9.36085 14.1133C9.39385 14.0913 9.43785 14.0693 9.47085 14.0473L9.26185 13.7063C9.22885 13.7283 9.18485 13.7393 9.15185 13.7613L9.36085 14.1133ZM9.54785 14.0033C9.58085 13.9813 9.62485 13.9593 9.65785 13.9373L9.45985 13.5963C9.42685 13.6183 9.38285 13.6403 9.34985 13.6513L9.54785 14.0033ZM9.73485 13.8933L9.83385 13.8273L9.63585 13.4973C9.60285 13.5193 9.56985 13.5413 9.52585 13.5633L9.73485 13.8933ZM9.72385 13.4533L9.91085 13.7723L10.0098 13.7063L9.82285 13.3873L9.72385 13.4533ZM3.06885 13.6623L3.16785 13.7283L3.35485 13.4093L3.25585 13.3433L3.06885 13.6623ZM3.24485 13.7943L3.34385 13.8603L3.54185 13.5303C3.50885 13.5083 3.47585 13.4863 3.43185 13.4643L3.24485 13.7943ZM3.42085 13.9153L3.51985 13.9813L3.72885 13.6293C3.69585 13.6073 3.65185 13.5853 3.61885 13.5743L3.42085 13.9153ZM3.60785 14.0253C3.64085 14.0473 3.68485 14.0583 3.71785 14.0803L3.92685 13.7283C3.89385 13.7063 3.84985 13.6843 3.81685 13.6733L3.60785 14.0253ZM3.80585 14.1243C3.83885 14.1463 3.88285 14.1683 3.91585 14.1793L4.12485 13.8163C4.09185 13.7943 4.04785 13.7833 4.01485 13.7613L3.80585 14.1243Z" fill="#EFC04B"/>
</svg>
